<svg width="1200" height="630" viewBox="0 0 1200 630" fill="none" xmlns="http://www.w3.org/2000/svg">
<rect width="1200" height="630" fill="#E6E6E6"/>
<g clip-path="url(#clip0_2_58)">
<path d="M242.448 212.392V263.035H296.586V347.962H242.448V398.608L234.328 393.938L154.377 347.962L153.121 347.239L150.414 345.684V265.314L154.377 263.035L155.828 262.202L162.497 258.366L234.328 217.062L242.448 212.392ZM242.448 207C241.514 207 240.578 207.24 239.741 207.723L231.621 212.392L159.79 253.696L153.121 257.533L151.673 258.363L147.707 260.644C146.031 261.606 145 263.389 145 265.314V345.684C145 347.611 146.031 349.391 147.707 350.353L150.414 351.909L151.667 352.632L231.618 398.608L239.739 403.277C240.575 403.76 241.512 404 242.446 404C243.379 404 244.316 403.76 245.152 403.277C246.828 402.315 247.859 400.533 247.859 398.608V353.354H296.584C299.575 353.354 301.997 350.941 301.997 347.962V263.035C301.997 260.056 299.575 257.643 296.584 257.643H247.859V212.392C247.859 210.464 246.828 208.685 245.152 207.723C244.316 207.24 243.379 207 242.446 207H242.448Z" fill="#292929"/>
<path d="M237.034 221.731V263.035H165.204L237.034 221.731Z" fill="#292929"/>
<path d="M291.172 268.427V342.57H242.448V312.01L239.741 310.454L166.655 268.427H291.172Z" fill="#292929"/>
<path d="M237.034 315.124V389.269L155.828 342.57V268.427L237.034 315.124Z" fill="#292929"/>
</g>
<path d="M361.76 389.08V372.6H365.44V395H360.16L353.568 376.472H353.44V395H349.76V372.6H355.776L361.632 389.08H361.76ZM376.788 395.32C372.308 395.32 369.012 391.544 369.012 386.36C369.012 381.176 372.308 377.4 376.788 377.4C381.268 377.4 384.564 381.176 384.564 386.36C384.564 391.544 381.268 395.32 376.788 395.32ZM376.788 391.8C379.124 391.8 380.724 389.592 380.724 386.36C380.724 383.128 379.124 380.92 376.788 380.92C374.452 380.92 372.852 383.128 372.852 386.36C372.852 389.592 374.452 391.8 376.788 391.8ZM391.495 395L386.375 377.72H390.215L394.023 391H394.151L397.959 377.72H401.735L396.615 395H391.495ZM423.31 395V391.48H428.814V379.992H423.438V376.792C427.854 376.792 429.262 375.864 429.614 372.6H432.814V391.48H438.35V395H423.31ZM445.185 395C445.185 388.088 447.233 382.264 451.809 376.12H440.897V372.6H456.097V375.8C451.329 382.104 449.281 387.736 449.185 395H445.185ZM467.765 388.824C467.765 391 468.789 392.056 470.901 392.056C471.797 392.056 472.757 391.864 473.685 391.448V394.648C472.725 395.096 471.477 395.32 470.165 395.32C466.069 395.32 463.925 393.08 463.925 388.824V381.24H459.445V377.72H463.925V372.952L467.765 372.28V377.72H473.365V381.24H467.765V388.824ZM481.896 395H478.056V371.288H481.896V379.832H482.024C482.952 378.264 484.392 377.4 486.312 377.4C489.448 377.4 491.496 379.736 491.496 383.32V395H487.656V383.64C487.656 381.752 486.728 380.6 485.192 380.6C483.272 380.6 481.896 382.392 481.896 384.92V395ZM497.34 400.12L501.212 390.52H506.332L500.86 400.12H497.34ZM547.395 395H532.867V393.24C532.867 390.52 534.371 388.248 538.339 384.984C541.539 382.36 542.755 380.664 542.755 378.872C542.755 376.984 541.443 375.8 539.587 375.8C537.795 375.8 536.419 376.888 536.291 378.36H532.291C532.291 374.904 535.363 372.28 539.587 372.28C543.811 372.28 546.755 374.936 546.755 378.744C546.755 381.56 545.123 384.056 541.187 387.352C539.171 389.016 538.019 390.264 537.475 391.48H547.395V395ZM558.103 395.32C553.079 395.32 550.103 391.032 550.103 383.8C550.103 376.568 553.079 372.28 558.103 372.28C563.127 372.28 566.103 376.568 566.103 383.8C566.103 391.032 563.127 395.32 558.103 395.32ZM554.071 386.296L561.335 378.232C560.631 376.632 559.543 375.8 558.103 375.8C555.447 375.8 553.943 378.712 553.943 383.8C553.943 384.696 553.975 385.528 554.071 386.296ZM558.103 391.8C560.759 391.8 562.263 388.888 562.263 383.8C562.263 382.904 562.231 382.072 562.135 381.304L554.871 389.368C555.575 390.968 556.663 391.8 558.103 391.8ZM583.85 395H569.322V393.24C569.322 390.52 570.826 388.248 574.794 384.984C577.994 382.36 579.21 380.664 579.21 378.872C579.21 376.984 577.898 375.8 576.042 375.8C574.25 375.8 572.874 376.888 572.746 378.36H568.746C568.746 374.904 571.818 372.28 576.042 372.28C580.266 372.28 583.21 374.936 583.21 378.744C583.21 381.56 581.578 384.056 577.642 387.352C575.626 389.016 574.474 390.264 573.93 391.48H583.85V395ZM591.038 378.36H587.262C587.262 374.776 590.11 372.28 594.206 372.28C598.334 372.28 601.246 374.808 601.246 378.328C601.246 380.504 600.158 382.072 598.206 382.904V383.032C600.67 383.928 602.078 385.848 602.078 388.472C602.078 392.44 598.878 395.32 594.43 395.32C590.11 395.32 586.942 392.6 586.942 388.92H590.782C590.878 390.584 592.478 391.8 594.526 391.8C596.734 391.8 598.238 390.424 598.238 388.44C598.238 386.456 596.734 385.08 594.59 385.08H592.51V381.4H594.334C596.19 381.4 597.47 380.248 597.47 378.648C597.47 376.952 596.062 375.736 594.206 375.736C592.446 375.736 591.102 376.824 591.038 378.36ZM633.893 386.744C635.301 386.744 636.357 385.368 636.357 383.48C636.357 381.752 635.493 380.568 634.181 380.568C632.773 380.568 631.685 381.976 631.685 383.864C631.685 385.56 632.581 386.744 633.893 386.744ZM636.069 389.528L636.165 387.928H636.005C635.173 389.08 633.989 389.752 632.645 389.752C630.053 389.752 628.229 387.32 628.229 383.928C628.229 380.28 630.341 377.56 633.125 377.56C634.757 377.56 636.005 378.456 636.709 379.992H636.837C637.029 377.144 635.237 375.224 632.357 375.224C628.293 375.224 625.189 379.032 625.189 384.024C625.189 388.856 628.069 392.344 632.133 392.344C633.797 392.344 635.333 391.768 636.453 390.68L638.501 392.728C637.061 394.392 634.757 395.32 632.101 395.32C626.149 395.32 621.989 390.712 621.989 384.152C621.989 377.368 626.437 372.28 632.357 372.28C637.093 372.28 640.101 375.512 639.845 380.344L639.365 389.528H636.069ZM660.203 395V372.6H666.763C672.267 372.6 676.043 377.144 676.043 383.8C676.043 390.456 672.267 395 666.763 395H660.203ZM664.203 391.48H666.763C669.995 391.48 672.043 388.504 672.043 383.8C672.043 379.096 669.995 376.12 666.763 376.12H664.203V391.48ZM682.783 384.408H689.887C689.695 382.136 688.319 380.664 686.431 380.664C684.575 380.664 683.231 382.072 682.783 384.408ZM693.727 385.976V387.416H682.687C682.975 390.232 684.447 391.96 686.719 391.96C688.127 391.96 689.247 391.288 689.631 390.2H693.407C692.831 393.272 690.175 395.32 686.783 395.32C682.143 395.32 678.847 391.544 678.847 386.264C678.847 381.08 682.015 377.4 686.431 377.4C690.751 377.4 693.727 380.888 693.727 385.976ZM700.787 395L695.667 377.72H699.507L703.315 391H703.443L707.251 377.72H711.027L705.907 395H700.787ZM726.342 388.92H730.342C729.958 392.664 726.918 395.32 723.014 395.32C717.83 395.32 714.246 390.616 714.246 383.8C714.246 376.984 717.83 372.28 722.95 372.28C726.694 372.28 729.638 374.776 730.182 378.36H726.182C725.766 376.888 724.486 375.96 722.918 375.96C720.07 375.96 718.246 379.032 718.246 383.8C718.246 388.6 720.102 391.64 723.014 391.64C724.742 391.64 726.022 390.584 726.342 388.92ZM740.953 395.32C736.473 395.32 733.177 391.544 733.177 386.36C733.177 381.176 736.473 377.4 740.953 377.4C745.433 377.4 748.729 381.176 748.729 386.36C748.729 391.544 745.433 395.32 740.953 395.32ZM740.953 391.8C743.289 391.8 744.889 389.592 744.889 386.36C744.889 383.128 743.289 380.92 740.953 380.92C738.617 380.92 737.017 383.128 737.017 386.36C737.017 389.592 738.617 391.8 740.953 391.8ZM755.885 395H752.045V377.72H755.725V379.992H755.853C756.749 378.328 758.285 377.4 760.269 377.4C763.437 377.4 765.485 379.736 765.485 383.32V395H761.645V383.64C761.645 381.752 760.717 380.6 759.181 380.6C757.261 380.6 755.885 382.392 755.885 384.92V395ZM774.113 395H770.273V377.72H773.953V379.992H774.081C774.977 378.328 776.513 377.4 778.497 377.4C781.665 377.4 783.713 379.736 783.713 383.32V395H779.873V383.64C779.873 381.752 778.945 380.6 777.409 380.6C775.489 380.6 774.113 382.392 774.113 384.92V395ZM791.572 384.408H798.676C798.484 382.136 797.108 380.664 795.22 380.664C793.364 380.664 792.02 382.072 791.572 384.408ZM802.516 387.416H791.476C791.764 390.232 793.236 391.96 795.508 391.96C796.916 391.96 798.036 391.288 798.42 390.2H802.196C801.62 393.272 798.964 395.32 795.572 395.32C790.932 395.32 787.636 391.544 787.636 386.264C787.636 381.08 790.804 377.4 795.22 377.4C799.54 377.4 802.516 380.888 802.516 385.976V387.416ZM817.288 390.2H821.319C820.68 393.24 817.864 395.32 814.472 395.32C809.864 395.32 806.472 391.448 806.472 386.264C806.472 381.112 809.8 377.4 814.408 377.4C817.864 377.4 820.616 379.48 821.096 382.52H817.128C816.712 381.528 815.656 380.92 814.344 380.92C811.88 380.92 810.312 383 810.312 386.232C810.312 389.592 811.976 391.8 814.536 391.8C815.88 391.8 816.936 391.192 817.288 390.2ZM832.315 388.824C832.315 391 833.339 392.056 835.451 392.056C836.347 392.056 837.307 391.864 838.235 391.448V394.648C837.275 395.096 836.027 395.32 834.715 395.32C830.619 395.32 828.475 393.08 828.475 388.824V381.24H823.995V377.72H828.475V372.952L832.315 372.28V377.72H837.915V381.24H832.315V388.824ZM861.346 395V391.48H865.986V376.12H861.41V372.6H874.562V376.12H869.986V391.48H874.626V395H861.346ZM879.381 390.2H883.157C883.349 391.352 884.757 392.216 886.421 392.216C888.085 392.216 889.173 391.384 889.173 390.072C889.173 388.952 888.405 388.408 886.581 388.216L885.717 388.12C881.781 387.672 879.893 386.072 879.893 383.16C879.893 379.736 882.453 377.4 886.261 377.4C889.909 377.4 892.693 379.576 892.821 382.52H889.173C889.045 381.368 887.861 380.6 886.293 380.6C884.693 380.6 883.669 381.4 883.669 382.68C883.669 383.736 884.373 384.312 885.973 384.504L886.837 384.6C891.029 385.08 893.013 386.68 893.013 389.592C893.013 393.048 890.229 395.448 886.197 395.448C882.293 395.448 879.381 393.208 879.381 390.2ZM905.225 388.824C905.225 391 906.249 392.056 908.361 392.056C909.257 392.056 910.217 391.864 911.145 391.448V394.648C910.185 395.096 908.937 395.32 907.625 395.32C903.529 395.32 901.385 393.08 901.385 388.824V381.24H896.905V377.72H901.385V372.952L905.225 372.28V377.72H910.825V381.24H905.225V388.824ZM924.732 388.472V386.616C924.284 386.84 923.74 387 923.132 387.128C922.78 387.192 921.756 387.384 921.5 387.448C919.612 387.8 918.652 388.696 918.652 390.072C918.652 391.416 919.58 392.28 921.052 392.28C923.132 392.28 924.732 390.616 924.732 388.472ZM929.212 395H925.5C925.308 394.36 925.148 393.592 925.02 392.76H924.86C923.964 394.392 922.364 395.32 920.252 395.32C917.02 395.32 914.812 393.176 914.812 390.168C914.812 387.192 916.988 385.208 920.796 384.696C921.084 384.664 922.268 384.504 922.716 384.44C924.06 384.248 924.732 383.672 924.732 382.712C924.732 381.464 923.612 380.6 922.012 380.6C920.476 380.6 919.324 381.4 919.196 382.52H915.292C915.324 379.608 918.268 377.4 922.076 377.4C925.884 377.4 928.572 379.576 928.572 382.648V388.824C928.572 391.16 928.796 393.24 929.212 395ZM938.16 395H934.32V377.72H938V379.992H938.128C939.024 378.328 940.56 377.4 942.544 377.4C945.712 377.4 947.76 379.736 947.76 383.32V395H943.92V383.64C943.92 381.752 942.992 380.6 941.456 380.6C939.536 380.6 938.16 382.392 938.16 384.92V395ZM959.652 391.8C961.988 391.8 963.62 389.56 963.62 386.36C963.62 383.16 961.988 380.92 959.652 380.92C957.316 380.92 955.684 383.16 955.684 386.36C955.684 389.56 957.316 391.8 959.652 391.8ZM955.588 395H951.908V371.32H955.748V380.28H955.876C956.868 378.392 958.436 377.4 960.516 377.4C964.58 377.4 967.46 381.144 967.46 386.36C967.46 391.576 964.58 395.32 960.516 395.32C958.308 395.32 956.676 394.2 955.716 392.12H955.588V395ZM984.535 377.72V389.24C984.535 390.872 984.631 392.984 984.759 395H981.079C980.983 394.2 980.919 393.464 980.855 392.728H980.727C979.831 394.392 978.295 395.32 976.311 395.32C973.143 395.32 971.095 392.984 971.095 389.4V377.72H974.935V389.08C974.935 390.968 975.863 392.12 977.399 392.12C979.319 392.12 980.695 390.328 980.695 387.8V377.72H984.535ZM996.843 388.824C996.843 391 997.867 392.056 999.979 392.056C1000.87 392.056 1001.83 391.864 1002.76 391.448V394.648C1001.8 395.096 1000.55 395.32 999.243 395.32C995.147 395.32 993.003 393.08 993.003 388.824V374.84H988.043V371.32H996.843V388.824Z" fill="#094EFF"/>
<path d="M389.752 339.75H355.162L343 261H360.295L372.345 339.412H372.457L385.288 261H420.101L434.272 339.525H434.383L444.537 261H461.943L451.566 339.75H416.977L402.695 261.225H402.583L389.752 339.75Z" fill="#292929"/>
<path d="M483.868 341.213C472.934 341.213 461.553 335.363 461.553 323.55C461.553 311.85 474.161 307.013 484.426 306.45L507.635 305.213V304.2C507.635 296.55 500.605 294.638 492.795 294.638C484.091 294.638 478.401 298.463 478.401 303.75H462.891C462.891 288.45 474.049 281.812 492.795 281.812C513.548 281.812 524.037 289.913 524.037 307.8V339.638H507.858V319.612C507.858 338.175 490.451 341.213 483.868 341.213ZM490.117 329.288C496.811 328.838 507.858 327.037 507.858 319.162V316.238L492.46 317.025C488.778 317.25 478.624 317.588 478.624 322.875C478.624 327.825 485.877 329.513 490.117 329.288Z" fill="#292929"/>
<path d="M529.655 339.75V261H547.173V339.75H529.655Z" fill="#292929"/>
<path d="M552.755 339.75V261H570.273V339.75H552.755Z" fill="#292929"/>
<path d="M606.986 342C588.018 342 575.967 331.537 575.967 312.188C575.967 291.938 587.125 282.15 606.54 282.15C626.178 282.15 638.005 292.5 638.005 312.3V316.688L591.811 316.8C591.811 324.225 599.51 327.825 607.209 327.825C614.908 327.825 619.929 325.238 620.933 321.413H637.112C634.323 335.925 623.723 342 606.986 342ZM591.811 306.225L621.38 306.563C621.38 299.813 612.9 296.325 606.651 296.325C599.733 296.325 591.811 299.475 591.811 306.225Z" fill="#292929"/>
<path d="M669.474 273.6C669.474 281.25 673.156 283.5 680.408 283.5H685.653V297.675H669.474V317.25C669.474 321.525 671.036 323.775 674.606 323.775H685.653V339.75H668.469C658.093 339.75 652.625 332.663 652.625 321.413V297.675H640.798V283.5H668.358C659.655 283.5 652.514 283.275 652.514 267.413V261H669.474V273.6Z" fill="#292929"/>
<path d="M691.918 309.375V261H704.303V309.038C704.303 325.35 716.688 327.713 730.747 327.713C744.248 327.713 757.414 325.238 757.414 309.038V261H769.8V309.375C769.8 334.462 751.389 339.75 730.747 339.75C710.105 339.75 691.918 334.35 691.918 309.375Z" fill="#292929"/>
<path d="M789.188 309.487V339.75H776.58V283.5H789.188V306.45C789.188 288.225 804.809 281.7 814.963 281.7C822.997 281.7 839.957 284.175 839.957 306.788V339.75H827.348V309.487C827.348 298.688 819.761 293.288 810.5 293.288C800.681 293.288 789.188 298.8 789.188 309.487Z" fill="#292929"/>
<path d="M846.755 311.963C846.755 293.288 860.033 282.6 877.997 282.6C892.837 282.6 909.797 289.237 910.02 306.337H897.3C895.627 297.113 886.7 294.075 879.001 294.075C864.161 294.075 859.252 302.4 859.252 311.963C859.252 321.525 863.715 330.075 878.667 330.075C886.366 330.075 895.515 327.15 897.3 317.925H910.02C909.686 335.588 892.391 341.663 878.555 341.663C859.698 341.663 846.755 331.425 846.755 311.963Z" fill="#292929"/>
<path d="M916.492 311.625C916.492 291.6 928.654 282.375 949.519 282.375C970.05 282.375 981.877 290.925 981.877 311.625C981.877 330.975 969.715 340.65 949.519 340.65C930.328 340.65 916.492 330.975 916.492 311.625ZM928.989 311.513C928.989 324.563 937.246 329.512 949.519 329.512C962.351 329.512 969.38 323.213 969.38 311.513C969.38 299.362 962.239 293.625 949.519 293.625C936.688 293.625 928.989 299.813 928.989 311.513Z" fill="#292929"/>
<path d="M1001.23 309.487V339.75H988.623V283.5H1001.23V306.45C1001.23 288.225 1016.85 281.7 1027.01 281.7C1035.04 281.7 1052 284.175 1052 306.788V339.75H1039.39V309.487C1039.39 298.688 1031.8 293.288 1022.54 293.288C1012.72 293.288 1001.23 298.8 1001.23 309.487Z" fill="#292929"/>
<defs>
<clipPath id="clip0_2_58">
<rect width="157" height="197" fill="white" transform="translate(145 207)"/>
</clipPath>
</defs>
</svg>
