<svg width="400" height="400" viewBox="0 0 400 400" fill="none" xmlns="http://www.w3.org/2000/svg">
<rect width="400" height="400" fill="#E6E6E6"/>
<g clip-path="url(#clip0_2_51)">
<path d="M230.944 54.199L85.4337 138.178V263.384L230.944 346.6V268.347H313.438V133.216H230.944V54.199Z" fill="#E6E6E6"/>
<path d="M229.337 58.2542V135.777H312.042V265.781H229.337V343.308L216.932 336.16L94.7932 265.781L92.8745 264.675L88.7392 262.293V139.265L94.7932 135.777L97.0097 134.502L107.199 128.629L216.932 65.4023L229.337 58.2542ZM229.337 50C227.911 50 226.48 50.3673 225.202 51.1061L212.796 58.2542L103.064 121.481L92.8745 127.354L90.6621 128.625L84.604 132.117C82.0443 133.59 80.4688 136.318 80.4688 139.265V262.293C80.4688 265.244 82.0443 267.968 84.604 269.442L88.7392 271.823L90.6538 272.929L212.792 343.308L225.198 350.456C226.476 351.195 227.907 351.562 229.333 351.562C230.76 351.562 232.191 351.195 233.468 350.456C236.028 348.983 237.604 346.255 237.604 343.308V274.035H312.038C316.607 274.035 320.308 270.341 320.308 265.781V135.777C320.308 131.217 316.607 127.523 312.038 127.523H237.604V58.2542C237.604 55.3033 236.028 52.5794 233.468 51.1061C232.191 50.3673 230.76 50 229.333 50H229.337Z" fill="#292929"/>
<path d="M221.067 72.5504V135.777H111.334L221.067 72.5504Z" fill="#292929"/>
<path d="M303.772 144.032V257.527H229.337V210.746L225.202 208.365L113.551 144.032H303.772Z" fill="#292929"/>
<path d="M221.067 215.513V329.012L97.0097 257.527V144.032L221.067 215.513Z" fill="#292929"/>
</g>
<defs>
<clipPath id="clip0_2_51">
<rect width="239.844" height="301.562" fill="white" transform="translate(80.4688 50)"/>
</clipPath>
</defs>
</svg>
