<svg width="1500" height="500" viewBox="0 0 1500 500" fill="none" xmlns="http://www.w3.org/2000/svg">
<rect width="1500" height="500" fill="#E6E6E6"/>
<path d="M435.76 331.08V314.6H439.44V337H434.16L427.568 318.472H427.44V337H423.76V314.6H429.776L435.632 331.08H435.76ZM450.788 337.32C446.308 337.32 443.012 333.544 443.012 328.36C443.012 323.176 446.308 319.4 450.788 319.4C455.268 319.4 458.564 323.176 458.564 328.36C458.564 333.544 455.268 337.32 450.788 337.32ZM450.788 333.8C453.124 333.8 454.724 331.592 454.724 328.36C454.724 325.128 453.124 322.92 450.788 322.92C448.452 322.92 446.852 325.128 446.852 328.36C446.852 331.592 448.452 333.8 450.788 333.8ZM465.495 337L460.375 319.72H464.215L468.023 333H468.151L471.959 319.72H475.735L470.615 337H465.495ZM497.31 337V333.48H502.814V321.992H497.438V318.792C501.854 318.792 503.262 317.864 503.614 314.6H506.814V333.48H512.35V337H497.31ZM519.185 337C519.185 330.088 521.233 324.264 525.809 318.12H514.897V314.6H530.097V317.8C525.329 324.104 523.281 329.736 523.185 337H519.185ZM541.765 330.824C541.765 333 542.789 334.056 544.901 334.056C545.797 334.056 546.757 333.864 547.685 333.448V336.648C546.725 337.096 545.477 337.32 544.165 337.32C540.069 337.32 537.925 335.08 537.925 330.824V323.24H533.445V319.72H537.925V314.952L541.765 314.28V319.72H547.365V323.24H541.765V330.824ZM555.896 337H552.056V313.288H555.896V321.832H556.024C556.952 320.264 558.392 319.4 560.312 319.4C563.448 319.4 565.496 321.736 565.496 325.32V337H561.656V325.64C561.656 323.752 560.728 322.6 559.192 322.6C557.272 322.6 555.896 324.392 555.896 326.92V337ZM571.34 342.12L575.212 332.52H580.332L574.86 342.12H571.34ZM621.395 337H606.867V335.24C606.867 332.52 608.371 330.248 612.339 326.984C615.539 324.36 616.755 322.664 616.755 320.872C616.755 318.984 615.443 317.8 613.587 317.8C611.795 317.8 610.419 318.888 610.291 320.36H606.291C606.291 316.904 609.363 314.28 613.587 314.28C617.811 314.28 620.755 316.936 620.755 320.744C620.755 323.56 619.123 326.056 615.187 329.352C613.171 331.016 612.019 332.264 611.475 333.48H621.395V337ZM632.103 337.32C627.079 337.32 624.103 333.032 624.103 325.8C624.103 318.568 627.079 314.28 632.103 314.28C637.127 314.28 640.103 318.568 640.103 325.8C640.103 333.032 637.127 337.32 632.103 337.32ZM628.071 328.296L635.335 320.232C634.631 318.632 633.543 317.8 632.103 317.8C629.447 317.8 627.943 320.712 627.943 325.8C627.943 326.696 627.975 327.528 628.071 328.296ZM632.103 333.8C634.759 333.8 636.263 330.888 636.263 325.8C636.263 324.904 636.231 324.072 636.135 323.304L628.871 331.368C629.575 332.968 630.663 333.8 632.103 333.8ZM657.85 337H643.322V335.24C643.322 332.52 644.826 330.248 648.794 326.984C651.994 324.36 653.21 322.664 653.21 320.872C653.21 318.984 651.898 317.8 650.042 317.8C648.25 317.8 646.874 318.888 646.746 320.36H642.746C642.746 316.904 645.818 314.28 650.042 314.28C654.266 314.28 657.21 316.936 657.21 320.744C657.21 323.56 655.578 326.056 651.642 329.352C649.626 331.016 648.474 332.264 647.93 333.48H657.85V337ZM665.038 320.36H661.262C661.262 316.776 664.11 314.28 668.206 314.28C672.334 314.28 675.246 316.808 675.246 320.328C675.246 322.504 674.158 324.072 672.206 324.904V325.032C674.67 325.928 676.078 327.848 676.078 330.472C676.078 334.44 672.878 337.32 668.43 337.32C664.11 337.32 660.942 334.6 660.942 330.92H664.782C664.878 332.584 666.478 333.8 668.526 333.8C670.734 333.8 672.238 332.424 672.238 330.44C672.238 328.456 670.734 327.08 668.59 327.08H666.51V323.4H668.334C670.19 323.4 671.47 322.248 671.47 320.648C671.47 318.952 670.062 317.736 668.206 317.736C666.446 317.736 665.102 318.824 665.038 320.36ZM707.893 328.744C709.301 328.744 710.357 327.368 710.357 325.48C710.357 323.752 709.493 322.568 708.181 322.568C706.773 322.568 705.685 323.976 705.685 325.864C705.685 327.56 706.581 328.744 707.893 328.744ZM710.069 331.528L710.165 329.928H710.005C709.173 331.08 707.989 331.752 706.645 331.752C704.053 331.752 702.229 329.32 702.229 325.928C702.229 322.28 704.341 319.56 707.125 319.56C708.757 319.56 710.005 320.456 710.709 321.992H710.837C711.029 319.144 709.237 317.224 706.357 317.224C702.293 317.224 699.189 321.032 699.189 326.024C699.189 330.856 702.069 334.344 706.133 334.344C707.797 334.344 709.333 333.768 710.453 332.68L712.501 334.728C711.061 336.392 708.757 337.32 706.101 337.32C700.149 337.32 695.989 332.712 695.989 326.152C695.989 319.368 700.437 314.28 706.357 314.28C711.093 314.28 714.101 317.512 713.845 322.344L713.365 331.528H710.069ZM734.203 337V314.6H740.763C746.267 314.6 750.043 319.144 750.043 325.8C750.043 332.456 746.267 337 740.763 337H734.203ZM738.203 333.48H740.763C743.995 333.48 746.043 330.504 746.043 325.8C746.043 321.096 743.995 318.12 740.763 318.12H738.203V333.48ZM756.783 326.408H763.887C763.695 324.136 762.319 322.664 760.431 322.664C758.575 322.664 757.231 324.072 756.783 326.408ZM767.727 327.976V329.416H756.687C756.975 332.232 758.447 333.96 760.719 333.96C762.127 333.96 763.247 333.288 763.631 332.2H767.407C766.831 335.272 764.175 337.32 760.783 337.32C756.143 337.32 752.847 333.544 752.847 328.264C752.847 323.08 756.015 319.4 760.431 319.4C764.751 319.4 767.727 322.888 767.727 327.976ZM774.787 337L769.667 319.72H773.507L777.315 333H777.443L781.251 319.72H785.027L779.907 337H774.787ZM800.342 330.92H804.342C803.958 334.664 800.918 337.32 797.014 337.32C791.83 337.32 788.246 332.616 788.246 325.8C788.246 318.984 791.83 314.28 796.95 314.28C800.694 314.28 803.638 316.776 804.182 320.36H800.182C799.766 318.888 798.486 317.96 796.918 317.96C794.07 317.96 792.246 321.032 792.246 325.8C792.246 330.6 794.102 333.64 797.014 333.64C798.742 333.64 800.022 332.584 800.342 330.92ZM814.953 337.32C810.473 337.32 807.177 333.544 807.177 328.36C807.177 323.176 810.473 319.4 814.953 319.4C819.433 319.4 822.729 323.176 822.729 328.36C822.729 333.544 819.433 337.32 814.953 337.32ZM814.953 333.8C817.289 333.8 818.889 331.592 818.889 328.36C818.889 325.128 817.289 322.92 814.953 322.92C812.617 322.92 811.017 325.128 811.017 328.36C811.017 331.592 812.617 333.8 814.953 333.8ZM829.885 337H826.045V319.72H829.725V321.992H829.853C830.749 320.328 832.285 319.4 834.269 319.4C837.437 319.4 839.485 321.736 839.485 325.32V337H835.645V325.64C835.645 323.752 834.717 322.6 833.181 322.6C831.261 322.6 829.885 324.392 829.885 326.92V337ZM848.113 337H844.273V319.72H847.953V321.992H848.081C848.977 320.328 850.513 319.4 852.497 319.4C855.665 319.4 857.713 321.736 857.713 325.32V337H853.873V325.64C853.873 323.752 852.945 322.6 851.409 322.6C849.489 322.6 848.113 324.392 848.113 326.92V337ZM865.572 326.408H872.676C872.484 324.136 871.108 322.664 869.22 322.664C867.364 322.664 866.02 324.072 865.572 326.408ZM876.516 329.416H865.476C865.764 332.232 867.236 333.96 869.508 333.96C870.916 333.96 872.036 333.288 872.42 332.2H876.196C875.62 335.272 872.964 337.32 869.572 337.32C864.932 337.32 861.636 333.544 861.636 328.264C861.636 323.08 864.804 319.4 869.22 319.4C873.54 319.4 876.516 322.888 876.516 327.976V329.416ZM891.288 332.2H895.319C894.68 335.24 891.864 337.32 888.472 337.32C883.864 337.32 880.472 333.448 880.472 328.264C880.472 323.112 883.8 319.4 888.408 319.4C891.864 319.4 894.616 321.48 895.096 324.52H891.128C890.712 323.528 889.656 322.92 888.344 322.92C885.88 322.92 884.312 325 884.312 328.232C884.312 331.592 885.976 333.8 888.536 333.8C889.88 333.8 890.936 333.192 891.288 332.2ZM906.315 330.824C906.315 333 907.339 334.056 909.451 334.056C910.347 334.056 911.307 333.864 912.235 333.448V336.648C911.275 337.096 910.027 337.32 908.715 337.32C904.619 337.32 902.475 335.08 902.475 330.824V323.24H897.995V319.72H902.475V314.952L906.315 314.28V319.72H911.915V323.24H906.315V330.824ZM935.346 337V333.48H939.986V318.12H935.41V314.6H948.562V318.12H943.986V333.48H948.626V337H935.346ZM953.381 332.2H957.157C957.349 333.352 958.757 334.216 960.421 334.216C962.085 334.216 963.173 333.384 963.173 332.072C963.173 330.952 962.405 330.408 960.581 330.216L959.717 330.12C955.781 329.672 953.893 328.072 953.893 325.16C953.893 321.736 956.453 319.4 960.261 319.4C963.909 319.4 966.693 321.576 966.821 324.52H963.173C963.045 323.368 961.861 322.6 960.293 322.6C958.693 322.6 957.669 323.4 957.669 324.68C957.669 325.736 958.373 326.312 959.973 326.504L960.837 326.6C965.029 327.08 967.013 328.68 967.013 331.592C967.013 335.048 964.229 337.448 960.197 337.448C956.293 337.448 953.381 335.208 953.381 332.2ZM979.225 330.824C979.225 333 980.249 334.056 982.361 334.056C983.257 334.056 984.217 333.864 985.145 333.448V336.648C984.185 337.096 982.937 337.32 981.625 337.32C977.529 337.32 975.385 335.08 975.385 330.824V323.24H970.905V319.72H975.385V314.952L979.225 314.28V319.72H984.825V323.24H979.225V330.824ZM998.732 330.472V328.616C998.284 328.84 997.74 329 997.132 329.128C996.78 329.192 995.756 329.384 995.5 329.448C993.612 329.8 992.652 330.696 992.652 332.072C992.652 333.416 993.58 334.28 995.052 334.28C997.132 334.28 998.732 332.616 998.732 330.472ZM1003.21 337H999.5C999.308 336.36 999.148 335.592 999.02 334.76H998.86C997.964 336.392 996.364 337.32 994.252 337.32C991.02 337.32 988.812 335.176 988.812 332.168C988.812 329.192 990.988 327.208 994.796 326.696C995.084 326.664 996.268 326.504 996.716 326.44C998.06 326.248 998.732 325.672 998.732 324.712C998.732 323.464 997.612 322.6 996.012 322.6C994.476 322.6 993.324 323.4 993.196 324.52H989.292C989.324 321.608 992.268 319.4 996.076 319.4C999.884 319.4 1002.57 321.576 1002.57 324.648V330.824C1002.57 333.16 1002.8 335.24 1003.21 337ZM1012.16 337H1008.32V319.72H1012V321.992H1012.13C1013.02 320.328 1014.56 319.4 1016.54 319.4C1019.71 319.4 1021.76 321.736 1021.76 325.32V337H1017.92V325.64C1017.92 323.752 1016.99 322.6 1015.46 322.6C1013.54 322.6 1012.16 324.392 1012.16 326.92V337ZM1033.65 333.8C1035.99 333.8 1037.62 331.56 1037.62 328.36C1037.62 325.16 1035.99 322.92 1033.65 322.92C1031.32 322.92 1029.68 325.16 1029.68 328.36C1029.68 331.56 1031.32 333.8 1033.65 333.8ZM1029.59 337H1025.91V313.32H1029.75V322.28H1029.88C1030.87 320.392 1032.44 319.4 1034.52 319.4C1038.58 319.4 1041.46 323.144 1041.46 328.36C1041.46 333.576 1038.58 337.32 1034.52 337.32C1032.31 337.32 1030.68 336.2 1029.72 334.12H1029.59V337ZM1058.53 319.72V331.24C1058.53 332.872 1058.63 334.984 1058.76 337H1055.08C1054.98 336.2 1054.92 335.464 1054.85 334.728H1054.73C1053.83 336.392 1052.29 337.32 1050.31 337.32C1047.14 337.32 1045.09 334.984 1045.09 331.4V319.72H1048.93V331.08C1048.93 332.968 1049.86 334.12 1051.4 334.12C1053.32 334.12 1054.69 332.328 1054.69 329.8V319.72H1058.53ZM1070.84 330.824C1070.84 333 1071.87 334.056 1073.98 334.056C1074.87 334.056 1075.83 333.864 1076.76 333.448V336.648C1075.8 337.096 1074.55 337.32 1073.24 337.32C1069.15 337.32 1067 335.08 1067 330.824V316.84H1062.04V313.32H1070.84V330.824Z" fill="#094EFF"/>
<path d="M442.752 281.75H408.162L396 203H413.295L425.345 281.412H425.457L438.288 203H473.101L487.272 281.525H487.383L497.537 203H514.943L504.566 281.75H469.977L455.695 203.225H455.583L442.752 281.75Z" fill="#292929"/>
<path d="M536.868 283.213C525.934 283.213 514.553 277.363 514.553 265.55C514.553 253.85 527.161 249.013 537.426 248.45L560.635 247.213V246.2C560.635 238.55 553.605 236.638 545.795 236.638C537.091 236.638 531.401 240.463 531.401 245.75H515.891C515.891 230.45 527.049 223.812 545.795 223.812C566.548 223.812 577.037 231.913 577.037 249.8V281.638H560.858V261.612C560.858 280.175 543.451 283.213 536.868 283.213ZM543.117 271.288C549.811 270.838 560.858 269.037 560.858 261.162V258.238L545.46 259.025C541.778 259.25 531.624 259.588 531.624 264.875C531.624 269.825 538.877 271.513 543.117 271.288Z" fill="#292929"/>
<path d="M582.655 281.75V203H600.173V281.75H582.655Z" fill="#292929"/>
<path d="M605.755 281.75V203H623.273V281.75H605.755Z" fill="#292929"/>
<path d="M659.986 284C641.018 284 628.967 273.537 628.967 254.188C628.967 233.938 640.125 224.15 659.54 224.15C679.178 224.15 691.005 234.5 691.005 254.3V258.688L644.811 258.8C644.811 266.225 652.51 269.825 660.209 269.825C667.908 269.825 672.929 267.238 673.933 263.413H690.112C687.323 277.925 676.723 284 659.986 284ZM644.811 248.225L674.38 248.563C674.38 241.813 665.9 238.325 659.651 238.325C652.733 238.325 644.811 241.475 644.811 248.225Z" fill="#292929"/>
<path d="M722.474 215.6C722.474 223.25 726.156 225.5 733.408 225.5H738.653V239.675H722.474V259.25C722.474 263.525 724.036 265.775 727.606 265.775H738.653V281.75H721.469C711.093 281.75 705.625 274.663 705.625 263.413V239.675H693.798V225.5H721.358C712.655 225.5 705.514 225.275 705.514 209.413V203H722.474V215.6Z" fill="#292929"/>
<path d="M744.918 251.375V203H757.303V251.038C757.303 267.35 769.688 269.713 783.747 269.713C797.248 269.713 810.414 267.238 810.414 251.038V203H822.8V251.375C822.8 276.462 804.389 281.75 783.747 281.75C763.105 281.75 744.918 276.35 744.918 251.375Z" fill="#292929"/>
<path d="M842.188 251.487V281.75H829.58V225.5H842.188V248.45C842.188 230.225 857.809 223.7 867.963 223.7C875.997 223.7 892.957 226.175 892.957 248.788V281.75H880.348V251.487C880.348 240.688 872.761 235.288 863.5 235.288C853.681 235.288 842.188 240.8 842.188 251.487Z" fill="#292929"/>
<path d="M899.755 253.963C899.755 235.288 913.033 224.6 930.997 224.6C945.837 224.6 962.797 231.237 963.02 248.337H950.3C948.627 239.113 939.7 236.075 932.001 236.075C917.161 236.075 912.252 244.4 912.252 253.963C912.252 263.525 916.715 272.075 931.667 272.075C939.366 272.075 948.515 269.15 950.3 259.925H963.02C962.686 277.588 945.391 283.663 931.555 283.663C912.698 283.663 899.755 273.425 899.755 253.963Z" fill="#292929"/>
<path d="M969.492 253.625C969.492 233.6 981.654 224.375 1002.52 224.375C1023.05 224.375 1034.88 232.925 1034.88 253.625C1034.88 272.975 1022.71 282.65 1002.52 282.65C983.328 282.65 969.492 272.975 969.492 253.625ZM981.989 253.513C981.989 266.563 990.246 271.512 1002.52 271.512C1015.35 271.512 1022.38 265.213 1022.38 253.513C1022.38 241.362 1015.24 235.625 1002.52 235.625C989.688 235.625 981.989 241.813 981.989 253.513Z" fill="#292929"/>
<path d="M1054.23 251.487V281.75H1041.62V225.5H1054.23V248.45C1054.23 230.225 1069.85 223.7 1080.01 223.7C1088.04 223.7 1105 226.175 1105 248.788V281.75H1092.39V251.487C1092.39 240.688 1084.8 235.288 1075.54 235.288C1065.72 235.288 1054.23 240.8 1054.23 251.487Z" fill="#292929"/>
</svg>
